<?xml version="1.0" standalone="no"?>
<!DOCTYPE svg PUBLIC "-//W3C//DTD SVG 20010904//EN"
 "http://www.w3.org/TR/2001/REC-SVG-20010904/DTD/svg10.dtd">
<svg version="1.0" xmlns="http://www.w3.org/2000/svg"
 width="1242.000000pt" height="1242.000000pt" viewBox="0 0 1242.000000 1242.000000"
 preserveAspectRatio="xMidYMid meet">

<g transform="translate(0.000000,1242.000000) scale(0.100000,-0.100000)"
fill="#000000" stroke="none">
<path d="M2880 8796 c-36 -12 -86 -35 -112 -50 -100 -58 -196 -197 -218 -315
-14 -73 -13 -691 1 -767 31 -169 197 -337 367 -373 110 -23 209 -9 313 46 116
60 186 143 236 280 23 63 23 72 23 433 l0 369 -26 73 c-39 107 -96 184 -179
240 -129 86 -275 109 -405 64z m254 -218 c57 -28 84 -55 114 -113 l27 -50 0
-365 0 -365 -27 -51 c-46 -87 -126 -134 -230 -134 -45 0 -77 7 -113 24 -65 31
-92 58 -122 122 l-24 52 3 364 3 363 26 49 c62 118 220 166 343 104z"/>
<path d="M4097 8798 c-74 -26 -154 -98 -190 -172 -22 -44 -29 -76 -34 -150
l-6 -94 -41 -5 c-89 -12 -127 -112 -67 -176 23 -25 37 -31 70 -31 l41 0 0
-387 c0 -242 4 -402 11 -426 7 -26 21 -44 42 -57 39 -24 68 -25 107 -5 59 31
60 35 60 475 l0 400 111 0 c121 0 141 6 164 50 25 49 19 88 -19 126 l-34 34
-111 0 -111 0 0 70 c0 123 39 160 166 160 61 0 68 2 95 31 42 46 41 99 -5 145
-33 33 -36 34 -112 33 -52 0 -99 -8 -137 -21z"/>
<path d="M4986 8800 c-69 -27 -122 -66 -159 -119 -50 -70 -59 -98 -65 -203
l-5 -98 -30 0 c-41 0 -93 -35 -106 -71 -24 -69 26 -139 100 -139 l39 0 0 -400
c0 -440 1 -444 60 -475 44 -23 76 -18 115 16 l35 31 2 411 3 412 119 5 118 5
29 35 c32 38 36 67 15 109 -26 50 -54 60 -173 63 l-108 3 1 71 c1 114 42 154
161 154 65 0 95 15 118 60 24 46 19 76 -20 115 -35 34 -37 35 -118 35 -56 -1
-97 -7 -131 -20z"/>
<path d="M5820 8371 c-92 -20 -192 -93 -247 -179 -60 -94 -63 -108 -63 -393
-1 -256 -1 -261 24 -314 33 -72 95 -137 164 -171 l57 -29 237 -3 c261 -4 272
-1 304 59 21 41 17 71 -13 107 -38 45 -74 51 -294 51 -103 -1 -196 2 -207 5
-39 13 -62 66 -62 145 l0 71 256 0 c239 0 258 1 284 20 45 32 53 66 48 208 -4
120 -7 131 -39 197 -67 138 -194 224 -338 231 -42 1 -92 -1 -111 -5z m135
-212 c84 -23 130 -82 136 -174 l4 -50 -185 0 -185 0 -3 34 c-7 75 49 159 124
186 48 17 59 18 109 4z"/>
<path d="M6574 8346 l-34 -34 0 -479 c0 -525 -2 -506 60 -538 43 -22 76 -18
112 14 l33 29 5 414 5 413 111 3 111 3 6 -46 c6 -55 36 -92 83 -101 41 -8 66
0 98 33 25 25 26 30 26 143 l0 118 -35 31 -36 31 -255 0 -256 0 -34 -34z"/>
<path d="M2592 6920 c-18 -11 -37 -32 -42 -46 -6 -15 -10 -288 -10 -705 0
-754 -2 -726 65 -755 51 -21 633 -21 675 1 67 35 82 115 31 166 l-29 29 -261
0 -261 0 0 265 0 265 184 0 184 0 30 28 c38 36 48 73 31 113 -25 61 -53 69
-251 69 -107 0 -178 4 -180 10 -1 5 -2 91 0 190 l3 180 259 0 258 0 31 31 c42
42 43 95 2 141 l-29 33 -329 3 c-314 2 -329 2 -361 -18z"/>
<path d="M7785 6928 c-58 -33 -65 -63 -65 -265 l0 -163 -26 0 c-39 0 -90 -28
-103 -56 -35 -77 17 -154 104 -154 l24 0 3 -411 3 -411 37 -34 c43 -39 78 -43
122 -15 56 37 55 33 56 469 l0 402 108 0 c110 0 136 8 169 50 23 29 15 87 -16
122 l-29 33 -116 3 -116 4 0 173 c0 96 -4 185 -10 199 -19 51 -99 80 -145 54z"/>
<path d="M10318 6750 c-54 -4 -108 -10 -121 -14 -13 -3 -151 -12 -308 -21
-156 -8 -383 -22 -504 -30 -121 -8 -337 -22 -480 -30 -372 -23 -428 -29 -432
-41 -2 -7 2 -18 9 -25 23 -25 85 -122 112 -175 14 -29 38 -72 55 -95 16 -24
44 -75 62 -114 19 -38 35 -72 36 -74 2 -2 29 8 60 22 64 28 278 78 418 98 50
7 180 13 290 12 191 0 205 -1 315 -31 183 -49 244 -78 419 -199 103 -71 300
-267 368 -365 81 -118 141 -239 162 -328 11 -45 22 -84 24 -87 2 -2 53 1 113
6 60 5 250 13 422 17 240 5 312 10 308 19 -5 13 -87 130 -181 258 -33 45 -78
109 -100 143 -71 111 -238 335 -415 559 -97 122 -93 117 -221 290 -53 72 -109
149 -124 173 l-28 42 -81 -1 c-44 -1 -125 -5 -178 -9z"/>
<path d="M3643 6485 c-34 -15 -63 -60 -63 -99 0 -14 53 -104 135 -226 74 -112
135 -207 135 -212 0 -9 -156 -247 -224 -342 -20 -28 -38 -64 -42 -82 -11 -60
45 -124 109 -124 33 0 98 62 144 137 64 104 138 212 145 213 4 0 55 -72 113
-161 88 -132 113 -164 142 -176 70 -29 143 19 143 91 -1 36 -18 67 -134 241
l-134 199 19 36 c11 19 71 111 134 205 95 140 115 176 115 207 0 46 -37 93
-80 102 -64 12 -88 -10 -203 -183 -59 -88 -111 -161 -115 -161 -4 0 -46 59
-92 131 -133 205 -172 237 -247 204z"/>
<path d="M4671 6483 c-62 -31 -61 -14 -61 -751 0 -451 3 -679 11 -700 28 -81
155 -88 195 -10 10 20 14 71 14 203 l0 175 148 0 c123 0 158 3 208 20 96 33
146 77 191 166 l38 78 3 250 c5 329 -10 397 -110 493 -83 81 -111 88 -373 91
-200 2 -234 0 -264 -15z m469 -208 c57 -29 60 -48 60 -334 l0 -261 -29 -32
-29 -33 -156 -3 -156 -3 0 340 0 341 140 0 c107 0 148 -4 170 -15z"/>
<path d="M5954 6486 c-116 -33 -212 -116 -266 -230 l-33 -71 0 -265 0 -265 29
-59 c39 -80 99 -138 172 -167 55 -22 75 -24 290 -27 l231 -3 32 27 c42 35 52
63 40 107 -19 70 -24 71 -286 77 l-235 5 -29 33 c-27 30 -29 38 -29 112 l0 80
249 0 c338 0 337 -1 335 207 -1 111 -4 131 -30 196 -37 95 -133 194 -219 226
-75 28 -185 35 -251 17z m176 -218 c67 -35 101 -84 107 -157 l6 -61 -187 0
-186 0 0 45 c0 83 37 140 115 176 53 25 92 24 145 -3z"/>
<path d="M6748 6484 c-58 -31 -58 -31 -58 -534 0 -509 -1 -500 63 -534 42 -23
75 -17 120 23 l32 29 3 411 3 411 109 0 c109 0 110 0 110 -24 0 -42 20 -81 53
-103 40 -27 58 -28 103 -7 50 24 64 58 64 159 0 107 -16 150 -64 170 -52 22
-499 21 -538 -1z"/>
<path d="M9265 6170 c-106 -11 -355 -65 -428 -91 -93 -35 -112 -78 -123 -271
l-7 -118 79 0 c80 0 244 -30 499 -92 204 -49 462 -146 671 -252 134 -68 352
-198 420 -251 21 -17 58 -44 82 -59 l42 -29 42 19 c47 21 166 127 178 158 13
37 -64 275 -118 361 -143 229 -423 473 -639 557 -149 58 -211 69 -423 73 -107
2 -231 0 -275 -5z"/>
<path d="M8595 5589 c-95 -60 -154 -120 -226 -229 l-71 -107 -111 -27 c-233
-58 -341 -106 -582 -259 -44 -28 -86 -57 -94 -65 -30 -29 -221 -113 -291 -128
-89 -19 -222 -14 -290 11 -153 56 -252 11 -305 -141 -26 -71 -27 -284 -2 -338
13 -30 17 -66 17 -157 0 -110 2 -124 29 -183 17 -38 42 -74 63 -91 l35 -27 -5
-73 c-13 -198 118 -374 324 -435 31 -9 54 -10 92 -1 46 9 55 8 93 -12 58 -31
105 -79 166 -171 102 -152 115 -225 108 -575 -6 -266 -2 -301 49 -430 24 -60
59 -111 77 -111 23 0 58 54 69 105 7 31 14 55 16 52 3 -3 14 -65 24 -138 11
-74 26 -156 34 -184 26 -96 87 -242 106 -255 4 -3 15 -21 25 -40 57 -114 115
-196 150 -213 20 -10 40 -15 46 -12 5 3 19 27 33 53 98 193 107 208 183 284
101 102 206 163 413 238 63 24 136 53 163 65 l47 23 2 -111 c2 -170 3 -174 17
-191 21 -25 43 -6 116 99 126 180 274 279 589 392 125 44 170 67 282 139 253
163 390 279 529 445 94 113 125 160 180 270 26 52 49 96 51 98 2 2 40 -31 86
-73 64 -59 110 -90 200 -136 113 -58 139 -67 172 -54 25 9 19 40 -26 154 l-42
105 0 155 c1 103 8 205 22 305 32 222 42 367 42 595 0 306 -24 426 -125 635
-56 117 -157 245 -224 286 l-33 20 -24 -22 c-31 -29 -30 -43 1 -57 48 -22 113
-93 168 -185 69 -115 88 -162 120 -307 47 -214 45 -458 -8 -970 -32 -307 -31
-426 8 -540 14 -41 24 -76 22 -78 -4 -5 -216 139 -254 173 -55 49 -89 107 -93
156 -3 41 -5 44 -32 44 l-30 0 -18 -103 c-19 -110 -71 -230 -126 -294 -16 -18
-43 -53 -61 -78 -96 -135 -235 -268 -391 -373 -30 -20 -84 -57 -120 -82 -58
-40 -148 -88 -263 -140 -21 -9 -77 -30 -125 -47 -204 -70 -313 -138 -456 -283
l-89 -90 7 82 c8 104 11 110 56 133 52 27 94 78 79 96 -13 16 -40 18 -55 5
-25 -24 -231 -129 -286 -146 -77 -24 -283 -109 -338 -140 -166 -94 -294 -225
-360 -371 -15 -33 -32 -64 -37 -67 -12 -8 -131 197 -180 313 -22 52 -48 124
-56 160 -23 97 -40 293 -34 386 5 70 3 84 -12 98 -10 9 -25 16 -34 16 -28 0
-75 -71 -103 -157 -17 -51 -30 -79 -35 -71 -23 42 -30 144 -28 414 l3 289 -32
89 c-17 49 -50 119 -72 157 -44 74 -138 182 -183 209 l-27 17 72 27 c88 33
211 44 286 26 81 -19 133 -58 198 -151 74 -107 191 -226 262 -266 33 -20 142
-33 212 -27 163 15 385 96 499 183 53 40 109 124 126 188 12 45 15 88 10 188
-7 152 -21 307 -36 385 -16 81 10 231 71 418 27 85 55 183 61 220 24 134 -11
341 -78 464 -38 69 -121 141 -222 191 l-84 42 -146 3 c-102 2 -145 6 -143 14
6 24 63 95 114 144 60 58 118 99 196 138 30 15 52 29 50 30 -1 2 -30 6 -63 10
-56 6 -64 4 -110 -25z m150 -419 c63 -24 142 -91 189 -159 57 -82 87 -276 66
-428 -6 -48 -34 -151 -66 -243 -76 -221 -82 -280 -55 -493 29 -220 33 -435 8
-498 -43 -112 -208 -208 -441 -255 -96 -20 -246 -16 -291 8 -55 29 -123 97
-179 181 -95 140 -161 198 -258 228 -108 34 -256 20 -392 -38 -145 -61 -209
-67 -287 -27 -69 34 -129 92 -164 156 -22 41 -30 69 -33 128 l-4 76 119 -4
c136 -5 214 9 340 59 82 33 196 92 226 118 17 14 20 14 33 -4 8 -11 29 -66 47
-122 32 -102 47 -124 73 -102 21 18 17 86 -11 170 -33 100 -111 185 -209 229
-76 35 -105 37 -137 11 -31 -25 -14 -46 43 -55 23 -4 55 -14 72 -24 63 -35 62
-38 -21 -81 -43 -23 -118 -58 -168 -78 -85 -35 -98 -37 -221 -41 -88 -3 -145
0 -170 8 -87 28 -144 125 -144 245 l0 64 31 -11 c19 -6 59 -8 102 -4 123 11
280 115 331 218 38 77 36 138 -9 213 -20 32 -34 59 -33 60 2 1 47 12 101 24
105 23 206 69 354 164 45 28 119 76 164 104 45 29 117 67 158 84 42 17 94 39
116 49 35 16 279 80 355 94 14 2 88 3 165 2 120 -2 149 -6 200 -26z m-1852
-455 c56 -15 74 -23 149 -73 42 -27 78 -92 78 -140 0 -71 -48 -137 -140 -192
-53 -31 -79 -40 -136 -45 -96 -10 -126 6 -149 76 -25 74 -17 234 15 307 35 81
75 95 183 67z"/>
<path d="M7949 4644 c-51 -61 225 -279 416 -329 99 -26 182 -41 205 -36 15 3
30 19 30 33 0 18 -61 43 -182 75 -169 43 -240 81 -352 188 -49 47 -93 85 -97
85 -3 0 -12 -7 -20 -16z"/>
<path d="M11554 5098 c12 -164 68 -553 82 -567 6 -7 5 13 -11 153 -8 71 -13
132 -13 135 2 8 -11 232 -18 309 -5 54 -8 62 -26 62 -19 0 -20 -4 -14 -92z"/>
<path d="M10025 4876 c-49 -7 -120 -23 -157 -35 -78 -26 -201 -102 -240 -150
l-27 -32 -3 103 -3 103 -27 3 c-38 5 -43 -20 -43 -218 0 -160 1 -168 32 -252
17 -47 47 -120 67 -162 20 -41 48 -110 63 -153 26 -74 27 -87 27 -253 0 -96
-4 -270 -9 -387 -7 -201 -4 -252 21 -317 5 -13 -1 -13 -45 5 -67 29 -188 132
-235 203 -38 57 -63 69 -86 41 -16 -19 17 -76 96 -163 60 -67 120 -110 234
-167 206 -104 261 -93 161 32 -71 88 -74 96 -79 219 l-4 111 83 84 c74 73 96
89 179 126 332 149 404 198 499 342 81 123 104 200 103 344 -1 147 -26 245
-90 350 -47 80 -119 155 -174 183 -88 45 -208 59 -343 40z m244 -86 c66 -20
133 -64 172 -114 57 -73 111 -253 112 -375 2 -140 -66 -305 -161 -393 -73 -67
-210 -146 -360 -208 -88 -36 -134 -62 -184 -104 l-68 -56 0 33 c0 74 11 104
44 120 74 38 150 85 202 126 136 106 261 303 293 461 l16 82 45 -91 c47 -96
72 -119 97 -85 16 22 13 34 -43 152 -82 177 -173 259 -336 306 -78 22 -134 20
-218 -8 -92 -32 -129 -57 -191 -133 -28 -35 -55 -63 -59 -63 -23 0 -26 97 -4
130 33 49 110 122 159 150 138 78 353 110 484 70z m-129 -243 c97 -48 102 -54
108 -138 3 -51 -1 -95 -12 -139 -18 -69 -76 -195 -104 -226 -9 -11 -34 -39
-54 -64 -66 -81 -82 -96 -133 -125 -27 -16 -69 -42 -93 -58 -24 -16 -45 -27
-46 -25 -1 1 -8 62 -14 133 -12 142 -34 229 -88 343 -31 64 -34 77 -24 105 27
80 120 171 213 209 65 27 177 21 247 -15z"/>
<path d="M11519 4293 c-3 -17 1 -122 7 -181 l6 -62 69 60 c39 33 75 60 81 60
11 0 77 -49 124 -92 l31 -29 -2 26 c-2 14 0 68 3 119 l7 93 -89 7 c-120 8
-236 8 -237 -1z"/>
</g>
</svg>
